HIERARCHY
ROOT RootJoint
{
    OFFSET   0.000000   0.000000   0.000000
    CHANNELS 6 Xposition Yposition Zposition Xrotation Yrotation Zrotation
    JOINT pelvis_lowerback
    {
        OFFSET   0.000000   0.093605   0.000000
        CHANNELS 3 Xrotation Yrotation Zrotation
        JOINT lowerback_torso
        {
            OFFSET   0.000000   0.100000   0.000000
            CHANNELS 3 Xrotation Yrotation Zrotation
            JOINT torso_head
            {
                OFFSET   0.000000   0.282350   0.000000
                CHANNELS 3 Xrotation Yrotation Zrotation
                End Site
                {
                    OFFSET   0.000000   0.192650   0.000000
                }
            }
            JOINT rTorso_Clavicle
            {
                OFFSET  -0.001000   0.157500   0.000000
                CHANNELS 3 Xrotation Yrotation Zrotation
                JOINT rShoulder
                {
                    OFFSET  -0.117647   0.000000   0.000000
                    CHANNELS 3 Xrotation Yrotation Zrotation
                    JOINT rElbow
                    {
                        OFFSET  -0.245000   0.000000   0.000000
                        CHANNELS 3 Xrotation Yrotation Zrotation
                        JOINT rWrist
                        {
                            OFFSET  -0.240000   0.000000   0.000000
                            CHANNELS 3 Xrotation Yrotation Zrotation
                            End Site
                            {
                                OFFSET  -0.116353  -0.002500   0.000000
                            }
                        }
                    }
                }
            }
            JOINT lTorso_Clavicle
            {
                OFFSET   0.001000   0.157500   0.000000
                CHANNELS 3 Xrotation Yrotation Zrotation
                JOINT lShoulder
                {
                    OFFSET   0.117647   0.000000   0.000000
                    CHANNELS 3 Xrotation Yrotation Zrotation
                    JOINT lElbow
                    {
                        OFFSET   0.245000   0.000000   0.000000
                        CHANNELS 3 Xrotation Yrotation Zrotation
                        JOINT lWrist
                        {
                            OFFSET   0.240000   0.000000   0.000000
                            CHANNELS 3 Xrotation Yrotation Zrotation
                            End Site
                            {
                                OFFSET   0.116353  -0.002500   0.000000
                            }
                        }
                    }
                }
            }
        }
    }
    JOINT rHip
    {
        OFFSET  -0.100000  -0.051395   0.000000
        CHANNELS 3 Xrotation Yrotation Zrotation
        JOINT rKnee
        {
            OFFSET   0.000000  -0.410000   0.000000
            CHANNELS 3 Xrotation Yrotation Zrotation
            JOINT rAnkle
            {
                OFFSET   0.000000  -0.390000   0.000000
                CHANNELS 3 Xrotation Yrotation Zrotation
                JOINT rToeJoint
                {
                    OFFSET   0.000000  -0.050000   0.130000
                    CHANNELS 3 Xrotation Yrotation Zrotation
                    End Site
                    {
                        OFFSET  -0.010000   0.002000   0.060000
                    }
                }
            }
        }
    }
    JOINT lHip
    {
        OFFSET   0.100000  -0.051395   0.000000
        CHANNELS 3 Xrotation Yrotation Zrotation
        JOINT lKnee
        {
            OFFSET   0.000000  -0.410000   0.000000
            CHANNELS 3 Xrotation Yrotation Zrotation
            JOINT lAnkle
            {
                OFFSET   0.000000  -0.390000   0.000000
                CHANNELS 3 Xrotation Yrotation Zrotation
                JOINT lToeJoint
                {
                    OFFSET   0.000000  -0.050000   0.130000
                    CHANNELS 3 Xrotation Yrotation Zrotation
                    End Site
                    {
                        OFFSET   0.010000   0.002000   0.060000
                    }
                }
            }
        }
    }
}
MOTION
Frames: 12
Frame Time:   0.008333
 -2.415202   0.924679   4.037115   0.432406  -4.873866   3.665682   0.546523   2.495164  -2.102436  -3.857296  -1.302888  -1.009301  -2.276655  -0.922009  -1.698070 -12.184343  -0.908188 -25.822769 -43.042022   1.998717   0.079881   0.000833  65.694396  -0.000960   1.913818   9.793253 -18.578326 -11.020102  -1.911313  29.399438 -42.345686  -2.637139  -2.427198   0.000457 -61.508233   0.001729   1.221555 -10.187855  20.700459   4.340176  -2.385137  -6.635605  -0.000000  -0.000000  -0.000000  -4.095402  -9.499214   1.843977  -0.967307   0.000014  -0.000003  -1.622582   3.485786   5.782474  14.933932  -0.000051  -0.000041   3.214056   6.867343  -2.376720 -24.258478   0.000157   0.000237
 -2.415639   0.924748   4.037203   0.382213  -4.891298   3.701123   0.576949   2.549587  -2.121845  -3.824395  -1.304056  -1.074949  -2.265807  -0.982430  -1.712695 -12.215225  -0.817909 -25.905065 -43.169849   1.957819   0.168788   0.001512  65.436684  -0.001880   1.885377   9.865850 -18.541934 -11.048539  -1.963852  29.374639 -42.540529  -2.596953  -2.528267   0.000733 -61.350834   0.002011   1.159993 -10.206089  20.708276   4.402994  -2.355878  -6.651441  -0.000000  -0.000000  -0.000000  -4.104516  -9.516473   1.852647  -0.947177   0.000005  -0.000003  -1.567807   3.489639   5.772604  14.934328  -0.000041  -0.000033   3.335449   6.854888  -2.419969 -24.417726   0.000123   0.000204
 -2.416079   0.924821   4.037264   0.334797  -4.905801   3.737397   0.606880   2.602958  -2.144749  -3.792727  -1.304325  -1.144600  -2.251918  -1.039887  -1.729059 -12.250352  -0.730506 -25.997617 -43.295908   1.919665   0.243643   0.002084  65.183229  -0.002587   1.832645   9.861235 -18.534646 -11.082527  -2.014539  29.365125 -42.729299  -2.563228  -2.613737   0.000950 -61.202693   0.002182   1.094240 -10.210345  20.753235   4.461128  -2.329151  -6.667122  -0.000000  -0.000000  -0.000000  -4.112206  -9.533826   1.859282  -0.928286  -0.000001  -0.000002  -1.515862   3.487499   5.763135  14.929661  -0.000032  -0.000026   3.461752   6.836430  -2.456856 -24.583831   0.000102   0.000193
 -2.416522   0.924891   4.037302   0.289895  -4.920115   3.771292   0.634740   2.654411  -2.169283  -3.764111  -1.303143  -1.213526  -2.237469  -1.093463  -1.745180 -12.285663  -0.648038 -26.093423 -43.416142   1.887049   0.308380   0.002484  64.945689  -0.003043   1.776113   9.838571 -18.541273 -11.117792  -2.061249  29.364455 -42.908021  -2.533944  -2.687943   0.001098 -61.064880   0.002252   1.031116 -10.213916  20.812371   4.514936  -2.303656  -6.679790  -0.000000  -0.000000  -0.000000  -4.118196  -9.549587   1.865367  -0.910984  -0.000006  -0.000002  -1.467366   3.482328   5.756788  14.924017  -0.000024  -0.000020   3.585851   6.816384  -2.489579 -24.748604   0.000089   0.000193
 -2.416962   0.924959   4.037319   0.246584  -4.934298   3.802137   0.659971   2.703459  -2.194666  -3.738513  -1.300923  -1.280553  -2.223342  -1.143436  -1.760530 -12.319646  -0.570097 -26.188995 -43.529709   1.859359   0.365735   0.002733  64.724497  -0.003301   1.721702   9.815891 -18.554683 -11.152697  -2.104402  29.368768 -43.076199  -2.507966  -2.753844   0.001186 -60.936731   0.002250   0.971546 -10.219426  20.876896   4.565570  -2.279369  -6.689121  -0.000000  -0.000000  -0.000000  -4.122646  -9.563768   1.871259  -0.895127  -0.000009  -0.000001  -1.421748   3.475799   5.753627  14.918574  -0.000017  -0.000016   3.705486   6.796468  -2.519015 -24.908563   0.000081   0.000195
 -2.417396   0.925022   4.037317   0.204307  -4.948011   3.829917   0.682445   2.749894  -2.220510  -3.715713  -1.298053  -1.345344  -2.209917  -1.190063  -1.775012 -12.351764  -0.496467 -26.282305 -43.636488   1.835621   0.417363   0.002861  64.518703  -0.003409   1.670504   9.796842 -18.571547 -11.186440  -2.144419  29.375764 -43.233967  -2.484519  -2.813308   0.001228 -60.817474   0.002198   0.915316 -10.226727  20.943163   4.613708  -2.256429  -6.695379  -0.000000  -0.000000  -0.000000  -4.125672  -9.576632   1.877034  -0.880589  -0.000011  -0.000001  -1.378647   3.468727   5.753226  14.913717  -0.000012  -0.000012   3.819890   6.777356  -2.545650 -25.061999   0.000077   0.000195
 -2.417821   0.925082   4.037296   0.162735  -4.960991   3.854784   0.702237   2.793673  -2.246570  -3.695483  -1.294808  -1.407783  -2.197337  -1.233573  -1.788642 -12.381892  -0.427055 -26.372173 -43.736639   1.814973   0.464312   0.002897  64.327175  -0.003411   1.622434   9.781481 -18.590181 -11.218653  -2.181573  29.384045 -43.381696  -2.463039  -2.867542   0.001233 -60.706389   0.002111   0.862056 -10.235207  21.009352   4.659710  -2.234915  -6.698946  -0.000000  -0.000000  -0.000000  -4.127321  -9.588415   1.882697  -0.867261  -0.000013  -0.000001  -1.337837   3.461524   5.755126  14.909550  -0.000009  -0.000009   3.928802   6.759316  -2.569838 -25.207942   0.000075   0.000192
 -2.418209   0.925135   4.037330   0.093027  -4.955111   3.878240   0.751442   2.829735  -2.272346  -3.675361  -1.292235  -1.482815  -2.167033  -1.286039  -1.795310 -12.418958  -0.354214 -26.480020 -43.880667   1.788224   0.522468   0.003733  63.984390  -0.004319   1.596776   9.842328 -18.600241 -11.271873  -2.215409  29.401358 -43.613369  -2.466747  -2.945680   0.001377 -60.599264   0.002202   0.792841 -10.242174  21.043301   4.743240  -2.211169  -6.702792  -0.000000  -0.000000  -0.000000  -4.141223  -9.624679   1.866093  -0.814250  -0.000015  -0.000001  -1.272218   3.428349   5.759557  14.918063  -0.000010  -0.000008   3.995677   6.708285  -2.585350 -25.213363   0.000060   0.000156
 -2.418556   0.925182   4.037413   0.026528  -4.949580   3.902085   0.794076   2.866440  -2.299881  -3.658854  -1.288321  -1.557241  -2.135245  -1.335121  -1.803361 -12.458452  -0.287116 -26.586623 -44.018977   1.758756   0.572093   0.004370  63.652647  -0.004973   1.550647   9.836253 -18.624117 -11.328649  -2.246244  29.424834 -43.835163  -2.471996  -3.012147   0.001476 -60.500039   0.002229   0.724626 -10.249473  21.108842   4.826202  -2.189215  -6.709703  -0.000000  -0.000000  -0.000000  -4.158116  -9.659257   1.849129  -0.765175  -0.000015  -0.000001  -1.207726   3.391063   5.762143  14.929727  -0.000012  -0.000009   4.060292   6.652662  -2.600048 -25.236286   0.000048   0.000140
 -2.418861   0.925222   4.037538  -0.035322  -4.945524   3.924999   0.829210   2.902443  -2.327812  -3.648027  -1.283296  -1.628611  -2.104683  -1.380843  -1.811677 -12.497754  -0.225947 -26.689071 -44.149553   1.730423   0.615581   0.004776  63.341383  -0.005360   1.500172   9.811544 -18.655015 -11.385277  -2.272987  29.451331 -44.044168  -2.477035  -3.069895   0.001532 -60.407572   0.002207   0.659703 -10.257544  21.185857   4.906534  -2.168647  -6.718342  -0.000000  -0.000000  -0.000000  -4.177188  -9.691121   1.832669  -0.720201  -0.000013  -0.000000  -1.145334   3.354911   5.763047  14.943097  -0.000014  -0.000009   4.119837   6.598749  -2.614396 -25.270785   0.000038   0.000135
 -2.419124   0.925254   4.037700  -0.092870  -4.942416   3.946174   0.857280   2.937106  -2.355239  -3.642490  -1.277658  -1.696328  -2.076003  -1.423491  -1.819752 -12.535870  -0.169797 -26.786558 -44.272266   1.703803   0.654359   0.004990  63.050614  -0.005534   1.450431   9.783709 -18.689566 -11.440506  -2.296354  29.478794 -44.240413  -2.481517  -3.121015   0.001550 -60.321263   0.002149   0.597777 -10.265752  21.267146   4.984271  -2.149554  -6.727796  -0.000000  -0.000000  -0.000000  -4.198048  -9.720603   1.816904  -0.678987  -0.000011  -0.000000  -1.084941   3.320778   5.762832  14.957553  -0.000015  -0.000010   4.174298   6.547669  -2.628117 -25.319473   0.000029   0.000138
 -2.419346   0.925279   4.037893  -0.146507  -4.939839   3.965262   0.879034   2.970212  -2.381782  -3.641501  -1.271728  -1.760309  -2.049351  -1.463287  -1.827420 -12.572429  -0.118090 -26.878731 -44.387355   1.678845   0.689306   0.005052  62.779242  -0.005547   1.402617   9.756591 -18.726105 -11.493730  -2.316950  29.506092 -44.424357  -2.485358  -3.166841   0.001538 -60.240658   0.002064   0.538570 -10.273770  21.349878   5.059457  -2.131972  -6.737628  -0.000000  -0.000000  -0.000000  -4.220312  -9.748019   1.801905  -0.641216  -0.000009  -0.000000  -1.026506   3.288791   5.761830  14.972741  -0.000016  -0.000010   4.223849   6.499583  -2.641178 -25.382846   0.000020   0.000148
